<svg xmlns="http://www.w3.org/2000/svg" viewBox="0 0 134.35 118.85"><defs><style>.cls-1{fill:#fe0000;}</style></defs><g id="레이어_2" data-name="레이어 2"><g id="레이어_1-2" data-name="레이어 1"><path class="cls-1" d="M97.82,10c14.18,0,21.47,10.94,22.06,11.88a4.87,4.87,0,0,0,.8,1.14c.88,1.24,8.57,13.06-1.32,34.74-8.69,19-37.11,39.84-52.19,49.39C52.1,97.62,23.7,76.85,15,57.76,5.11,36.08,12.79,24.26,13.68,23a5,5,0,0,0,.79-1.15C15.07,20.94,22.36,10,36.54,10S58,21,58.61,21.88a9.83,9.83,0,0,0,17.14,0C76.34,21,83.62,10,97.82,10m0-10C77.13,0,67.18,16.72,67.18,16.72S57.22,0,36.54,0,5.9,16.72,5.9,16.72s-13.28,16.09,0,45.19,61.28,56.94,61.28,56.94,48-27.83,61.27-56.94,0-45.19,0-45.19S118.5,0,97.82,0Z"/></g></g></svg>